<?xml version="1.0" encoding="UTF-8" standalone="no"?>
<!-- Created with Inkscape (http://www.inkscape.org/) -->

<svg
   xmlns:dc="http://purl.org/dc/elements/1.1/"
   xmlns:cc="http://creativecommons.org/ns#"
   xmlns:rdf="http://www.w3.org/1999/02/22-rdf-syntax-ns#"
   xmlns:svg="http://www.w3.org/2000/svg"
   xmlns="http://www.w3.org/2000/svg"
   xmlns:sodipodi="http://sodipodi.sourceforge.net/DTD/sodipodi-0.dtd"
   xmlns:inkscape="http://www.inkscape.org/namespaces/inkscape"
   width="100mm"
   height="44mm"
   viewBox="0 0 354.33071 155.90551"
   id="svg2"
   version="1.1"
   inkscape:version="0.91 r13725"
   sodipodi:docname="infra.svg">
  <defs
     id="defs4">
    <linearGradient
       id="linearGradient4689">
      <stop
         style="stop-color:#5a9fd4;stop-opacity:1;"
         offset="0"
         id="stop4691" />
      <stop
         style="stop-color:#306998;stop-opacity:1;"
         offset="1"
         id="stop4693" />
    </linearGradient>
    <linearGradient
       id="linearGradient4671">
      <stop
         style="stop-color:#ffd43b;stop-opacity:1;"
         offset="0"
         id="stop4673" />
      <stop
         style="stop-color:#ffe873;stop-opacity:1"
         offset="1"
         id="stop4675" />
    </linearGradient>
  </defs>
  <sodipodi:namedview
     id="base"
     pagecolor="#404040"
     bordercolor="#666666"
     borderopacity="1.0"
     inkscape:pageopacity="0"
     inkscape:pageshadow="2"
     inkscape:zoom="3.2244069"
     inkscape:cx="186.38018"
     inkscape:cy="43.022695"
     inkscape:document-units="mm"
     inkscape:current-layer="g11879"
     showgrid="false"
     inkscape:window-width="1848"
     inkscape:window-height="1056"
     inkscape:window-x="72"
     inkscape:window-y="0"
     inkscape:window-maximized="1"
     showguides="true"
     inkscape:guide-bbox="true"
     fit-margin-top="5"
     fit-margin-left="5"
     fit-margin-bottom="5"
     fit-margin-right="5" />
  <metadata
     id="metadata7">
    <rdf:RDF>
      <cc:Work
         rdf:about="">
        <dc:format>image/svg+xml</dc:format>
        <dc:type
           rdf:resource="http://purl.org/dc/dcmitype/StillImage" />
        <dc:title />
      </cc:Work>
    </rdf:RDF>
  </metadata>
  <g
     style="display:inline"
     id="g11879"
     inkscape:groupmode="layer"
     inkscape:label="all"
     transform="translate(-120.06159,-210.79887)">
    <g
       id="g4701">
      <path
         transform="translate(120.06159,210.79887)"
         d="m 67.21875,16.128906 c -2.30509,0.0069 -4.616616,0.302106 -6.919922,0.919922 C 46.466481,20.75825 40.563821,33.519492 38.625,42.472656 c -0.680507,3.14247 -1.017106,6.248977 -1.140625,9.308594 -7.31068,3.030128 -15.612512,9.101181 -18.460937,19.804688 a 11.354708,11.354708 0 0 0 -0.0059,0.01953 c -2.333916,8.801923 0.07216,16.823027 3.552734,22.669922 3.223039,5.414351 7.497591,9.495909 11.826172,12.814449 4.744378,3.63732 10.212471,6.56018 15.921875,9.1875 1.370151,6.85204 5.127835,14.92174 13.525391,19.81836 a 11.354708,11.354708 0 0 0 0.04883,0.0274 c 0.03191,0.0184 0.0637,0.0365 0.0957,0.0547 0.0013,7.6e-4 0.0026,0.001 0.0039,0.002 11.129715,6.37258 22.977406,3.06264 30.335937,-0.97266 4.312485,-2.3649 7.826255,-5.36966 11.095705,-8.48633 4.11279,-0.34308 8.3212,-0.92434 12.63281,-2.45508 3.29176,-1.16865 6.83442,-3.12815 10.12695,-5.6875 7.16845,11.37151 19.67355,19.09775 34.04297,19.09766 1.90591,0 3.5726,-0.21437 5.02735,-0.47851 3.62741,0.60756 7.55561,1.10156 11.97461,1.10156 4.52734,0 8.57077,-0.53432 12.32617,-1.18945 2.38041,0.62831 5.10322,1.18945 8.40625,1.18945 16.07573,-8e-5 29.62326,-9.67687 36.16992,-23.19531 3.08852,3.63615 6.57237,6.93514 10.47266,9.68554 12.26014,8.64581 27.99714,12.19654 42.76953,9.64063 14.77238,-2.55591 28.39527,-11.18901 37.01367,-23.45703 8.61869,-12.268042 12.12708,-28.015405 9.54687,-42.794926 -2.5802,-14.77952 -11.21647,-28.414355 -23.47656,-37.060546 -8.91057,-6.283505 -19.64201,-9.949384 -30.5293,-10.423829 -19.07353,-0.832308 -38.28225,8.619898 -49.25585,24.240235 -0.98929,1.408247 -1.89294,2.873981 -2.7461,4.367187 -1.03082,-1.477869 -2.24578,-2.774879 -3.5664,-3.949219 -0.71882,-3.277311 -1.60123,-6.712655 -3.08008,-10.373046 -4.3205,-11.086492 -15.68173,-17.79522 -27.37891,-16.423828 -0.91037,0.07123 -1.81951,0.173091 -2.71094,0.371093 a 11.354708,11.354708 0 0 0 -0.0801,0.01758 c -4.43304,1.01781 -8.36364,3.266143 -11.63868,6.248047 -4.07653,-4.055276 -9.464,-6.92013 -15.83789,-7.49414 a 11.354708,11.354708 0 0 0 -0.002,0 c -0.77866,-0.07002 -1.54727,-0.101581 -2.31445,-0.09766 -0.76203,0.004 -1.50593,0.04318 -2.24414,0.117188 -0.24129,0.02416 -0.42745,0.02749 -1.11719,0.148437 -0.0985,0.01726 -0.39002,0.155872 -0.54492,0.197266 -0.71486,0.08069 -1.43711,0.09474 -2.13868,0.253906 a 11.354708,11.354708 0 0 0 -0.0293,0.0059 c -7.94164,1.823395 -14.60016,7.271599 -17.96094,14.699218 a 11.354708,11.354708 0 0 0 -0.0234,0.05078 c -0.60189,1.34802 -1.0492,2.763945 -1.33203,4.21289 l 0.50586,-1.792968 c -1.24155,3.327105 -2.03002,6.477136 -2.6875,9.515624 -0.64941,0.583161 -1.27636,1.180839 -1.85937,1.839844 -2.1654,-4.664292 -5.66219,-9.225846 -11.15235,-12.419922 a 11.354708,11.354708 0 0 0 -0.0645,-0.03906 c -9.39681,-5.423208 -19.16411,-3.860734 -26.572267,-0.773438 -5.26e-4,-7.42e-4 -0.0014,-0.0012 -0.002,-0.002 C 90.818055,26.169534 81.471312,16.093739 67.232422,16.128906 a 11.354708,11.354708 0 0 0 -0.01367,0 z m -48.195312,55.457032 0.425781,-1.28125 a 11.354708,11.354708 0 0 0 -0.425781,1.28125 z M 159.39844,18.066406 c -0.93302,0.250423 -2.54796,0.771309 -3.25977,1.183594 -0.83329,0.482649 0.84822,-0.474285 1.60547,-0.759766 0.75725,-0.28548 1.07544,-0.339442 1.20508,-0.36914 l 0.44922,-0.05469 z"
         id="path4699"
         style="opacity:1;fill:#ffffff;fill-opacity:1;fill-rule:nonzero;stroke:none;stroke-width:7;stroke-linecap:round;stroke-linejoin:round;stroke-miterlimit:4;stroke-dasharray:none;stroke-opacity:1"
         inkscape:original="M 67.251953 27.482422 C 65.922953 27.486422 64.558914 27.661915 63.240234 28.015625 C 54.866184 30.261295 51.222433 37.94025 49.720703 44.875 C 48.709623 49.544 48.648202 54.770134 48.951172 60.177734 C 46.750012 60.589764 44.607855 61.112504 42.578125 61.882812 C 37.285845 63.891323 31.748904 67.919339 29.996094 74.505859 A 10.174185 10.174185 0 0 0 29.992188 74.515625 C 28.651816 79.570585 30.068788 84.67665 32.326172 88.46875 C 34.583522 92.26085 37.669657 95.293248 41.304688 98.080078 C 46.729867 102.23934 53.543985 105.81515 61.015625 108.68164 C 61.036825 110.35249 61.032714 112.02405 61.335938 113.67773 C 62.174768 118.25221 64.63802 123.41564 69.5625 126.28711 A 10.174185 10.174185 0 0 0 69.630859 126.32617 C 76.228369 130.10514 83.476681 128.20909 88.869141 125.25195 C 93.026941 122.97188 96.833042 119.58722 100.51953 115.75195 C 105.41087 115.57996 110.07472 115.05152 114.25781 113.56641 C 119.78917 111.60264 125.61313 107.58549 127.45312 100.76367 A 10.174185 10.174185 0 0 0 127.47266 100.69141 C 128.83549 95.483702 127.28639 90.268812 124.90234 86.419922 C 123.89696 84.796802 122.66343 83.370552 121.375 81.982422 C 123.51153 76.230032 125.18074 70.544653 125.59961 65.220703 C 125.89573 61.456933 125.73988 57.804566 124.5957 54.134766 C 123.45153 50.464976 120.97645 46.540624 117.02148 44.240234 A 10.174185 10.174185 0 0 0 116.99219 44.222656 C 110.0738 40.229826 102.53173 42.448446 96.931641 45.710938 C 95.255601 46.687357 93.634204 47.850776 92.039062 49.103516 C 90.439482 45.897416 88.726038 42.852844 86.830078 40.177734 C 82.125138 33.539294 76.515626 27.459562 67.259766 27.482422 A 10.174185 10.174185 0 0 0 67.251953 27.482422 z M 163.375 28.953125 C 162.97036 28.955225 162.57716 28.976372 162.20508 29.013672 A 8.1422612 8.1422612 0 0 0 162.20312 29.013672 C 161.60187 29.073872 162.04674 29.058672 161.48438 29.1875 A 8.1422612 8.1422612 0 0 0 159.7832 29.388672 C 155.28606 30.421212 151.52842 33.494452 149.625 37.701172 A 8.1422612 8.1422612 0 0 0 149.06836 39.460938 C 147.56616 43.486536 146.6925 47.5555 145.97852 51.5625 C 143.48598 52.78427 141.46505 54.839613 140.39258 57.445312 A 8.1422612 8.1422612 0 0 0 140.39258 57.449219 C 135.63699 69.014379 133.14641 84.882265 133.14648 96.828125 C 133.14648 112.9117 146.15207 126.32237 162.22656 126.32227 C 164.35141 126.32227 165.81902 125.97958 166.91797 125.66406 C 170.70129 126.39325 174.7519 126.94531 179.22852 126.94531 C 183.8803 126.94531 188.14292 126.33014 192.13281 125.51953 C 194.34612 126.26238 196.86026 126.94531 199.96094 126.94531 C 216.16171 126.94523 229.04102 113.30405 229.04102 97.242188 C 229.04124 85.297098 226.55276 69.429231 221.79688 57.863281 A 8.1422612 8.1422612 0 0 0 221.79492 57.857422 C 220.71384 55.233112 218.67648 53.173991 216.16406 51.957031 C 215.37527 47.714461 214.44692 43.379697 212.72656 39.148438 C 210.25851 32.745356 203.70382 28.920108 196.97266 29.828125 A 8.1422612 8.1422612 0 0 0 195.65039 30.009766 C 191.55326 30.950453 188.07794 33.590329 186.05273 37.228516 C 185.98363 37.307496 185.95713 37.342359 185.85547 37.451172 C 185.42814 37.908732 184.73928 38.5798 183.89844 39.25 C 183.34611 39.69024 182.29053 40.455624 181.55273 41.007812 C 180.63641 40.310102 179.42775 39.41249 178.7168 38.84375 C 177.73806 38.06076 176.86918 37.262249 176.30078 36.699219 C 176.16979 36.569467 176.12981 36.522467 176.03516 36.423828 C 173.78789 32.525364 169.56813 29.4519 164.61523 29.005859 L 164.61328 29.005859 C 164.19572 28.968309 163.77964 28.951055 163.375 28.953125 z M 281.43359 32.037109 A 45.98712 45.878137 60.000569 0 0 241.96289 51.460938 A 45.98712 45.878137 60.000569 0 0 253.14648 115.50977 A 45.98712 45.878137 60.000569 0 0 317.0957 104.44531 A 45.98712 45.878137 60.000569 0 0 305.91406 40.396484 A 45.98712 45.878137 60.000569 0 0 281.43359 32.037109 z M 176.5332 37.373047 C 176.5548 37.416527 176.56499 37.429707 176.58789 37.476562 L 176.73633 37.796875 C 176.67383 37.653747 176.60091 37.514555 176.5332 37.373047 z M 185.64258 38.019531 C 185.59398 38.120791 185.54057 38.219651 185.49414 38.322266 L 185.59766 38.101562 C 185.62326 38.049192 185.61918 38.066751 185.64258 38.019531 z "
         inkscape:radius="11.353573"
         sodipodi:type="inkscape:offset" />
      <g
         transform="translate(6.5972155,5.3099001e-7)"
         id="g4540">
        <g
           id="g4423"
           transform="matrix(0.88214355,0,0,0.88214355,429.37067,-319.98911)">
          <path
             style="opacity:1;fill:#d38d5f;fill-opacity:1;fill-rule:nonzero;stroke:none;stroke-width:7;stroke-linecap:round;stroke-linejoin:round;stroke-miterlimit:4;stroke-dasharray:none;stroke-opacity:1"
             d="m 1.3488677,720.10133 a 52.131107,52.007564 60.000569 0 1 -72.4934837,12.54266 52.131107,52.007564 60.000569 0 1 -12.676777,-72.60547 52.131107,52.007564 60.000569 0 1 72.493492,-12.54266 52.131107,52.007564 60.000569 0 1 12.6767687,72.60547 z"
             id="path4467"
             inkscape:connector-curvature="0" />
          <path
             style="opacity:1;fill:#784421;fill-opacity:1;fill-rule:nonzero;stroke:none;stroke-width:7;stroke-linecap:round;stroke-linejoin:round;stroke-miterlimit:4;stroke-dasharray:none;stroke-opacity:1"
             d="m -9.5296974,712.15367 a 38.75085,38.470943 73.85098 0 1 -53.5326956,9.73241 38.75085,38.470943 73.85098 0 1 -9.880379,-53.89984 38.75085,38.470943 73.85098 0 1 53.532687,-9.7324 38.75085,38.470943 73.85098 0 1 9.8803876,53.89983 z"
             id="path4469"
             inkscape:connector-curvature="0" />
          <path
             inkscape:connector-curvature="0"
             style="color:#000000;font-style:normal;font-variant:normal;font-weight:normal;font-stretch:normal;font-size:medium;line-height:normal;font-family:sans-serif;text-indent:0;text-align:start;text-decoration:none;text-decoration-line:none;text-decoration-style:solid;text-decoration-color:#000000;letter-spacing:normal;word-spacing:normal;text-transform:none;direction:ltr;block-progression:tb;writing-mode:lr-tb;baseline-shift:baseline;text-anchor:start;white-space:normal;clip-rule:nonzero;display:inline;overflow:visible;visibility:visible;opacity:1;isolation:auto;mix-blend-mode:normal;color-interpolation:sRGB;color-interpolation-filters:linearRGB;solid-color:#000000;solid-opacity:1;fill:#d38d5f;fill-opacity:1;fill-rule:evenodd;stroke:none;stroke-width:8.71248531;stroke-linecap:butt;stroke-linejoin:miter;stroke-miterlimit:4;stroke-dasharray:none;stroke-dashoffset:0;stroke-opacity:1;color-rendering:auto;image-rendering:auto;shape-rendering:auto;text-rendering:auto;enable-background:accumulate"
             d="m -14.591032,649.90589 c 0,0 -14.988569,2.61169 -29.348468,13.60249 -14.359907,10.99081 -28.183372,30.8048 -25.953329,63.65356 l 6.963966,-0.4725 c -2.088462,-30.76324 10.299257,-47.74005 23.23095,-57.63773 12.931692,-9.89768 26.314746,-12.27261 26.314746,-12.27261 l -1.207865,-6.87321 z"
             id="path4471" />
          <path
             inkscape:connector-curvature="0"
             style="color:#000000;font-style:normal;font-variant:normal;font-weight:normal;font-stretch:normal;font-size:medium;line-height:normal;font-family:sans-serif;text-indent:0;text-align:start;text-decoration:none;text-decoration-line:none;text-decoration-style:solid;text-decoration-color:#000000;letter-spacing:normal;word-spacing:normal;text-transform:none;direction:ltr;block-progression:tb;writing-mode:lr-tb;baseline-shift:baseline;text-anchor:start;white-space:normal;clip-rule:nonzero;display:inline;overflow:visible;visibility:visible;opacity:1;isolation:auto;mix-blend-mode:normal;color-interpolation:sRGB;color-interpolation-filters:linearRGB;solid-color:#000000;solid-opacity:1;fill:#d38d5f;fill-opacity:1;fill-rule:evenodd;stroke:none;stroke-width:8.71248531;stroke-linecap:butt;stroke-linejoin:miter;stroke-miterlimit:4;stroke-dasharray:none;stroke-dashoffset:0;stroke-opacity:1;color-rendering:auto;image-rendering:auto;shape-rendering:auto;text-rendering:auto;enable-background:accumulate"
             d="m -11.975043,650.87123 -6.890428,1.11399 c 0,0 2.142318,13.39865 -2.980539,28.84155 -5.122849,15.44289 -17.123124,32.69883 -46.915624,40.81688 l 1.835253,6.73397 c 31.803996,-8.66615 46.01484,-28.20007 51.704821,-45.35261 5.6899881,-17.15252 3.246517,-32.15378 3.246517,-32.15378 z"
             id="path4473" />
        </g>
        <g
           inkscape:label="Layer 1"
           id="layer1-1"
           transform="matrix(7.1867012,0,0,7.1867012,135.12145,232.0471)"
           inkscape:export-filename="/home/duffy/Documents/Work/Projects/FedBadges/Badges/koji-if-you-build-it-01.png"
           inkscape:export-xdpi="90"
           inkscape:export-ydpi="90"
           style="display:inline">
          <g
             transform="matrix(0.8672301,0,0,0.8672301,-130.00228,-389.2138)"
             id="g4771"
             style="display:inline">
            <ellipse
               ry="5.9717364"
               rx="2.2651412"
               cy="459.07269"
               cx="141.39973"
               id="path4743"
               style="fill:#c8ab37;fill-opacity:1;stroke:#786721;stroke-width:3.18568563;stroke-linecap:square;stroke-linejoin:miter;stroke-miterlimit:4;stroke-dasharray:none;stroke-dashoffset:0;stroke-opacity:1"
               transform="matrix(-0.2800672,1.052557,1.0452253,0.2820318,-281.17065,181.14584)" />
            <ellipse
               ry="5.9717364"
               rx="2.2651412"
               cy="459.07269"
               cx="141.39973"
               transform="matrix(-0.2800672,1.052557,1.0452253,0.2820318,-281.17065,181.14584)"
               style="fill:#c5a62b;fill-opacity:1;stroke:#e9ddaf;stroke-width:1.06189525;stroke-linecap:square;stroke-linejoin:miter;stroke-miterlimit:4;stroke-dasharray:none;stroke-dashoffset:0;stroke-opacity:1"
               id="path4729" />
            <ellipse
               ry="5.9717364"
               rx="2.2651412"
               cy="459.07269"
               cx="141.39973"
               id="path4735"
               style="fill:#c8ab37;fill-opacity:1;stroke:#786721;stroke-width:3.45928955;stroke-linecap:square;stroke-linejoin:miter;stroke-miterlimit:4;stroke-dasharray:none;stroke-dashoffset:0;stroke-opacity:1"
               transform="matrix(0.9659258,-0.2588191,0.2588191,0.9659258,-96.852821,50.398545)" />
            <ellipse
               ry="5.9717364"
               rx="2.2651412"
               cy="459.07269"
               cx="141.39973"
               transform="matrix(0.9659258,-0.2588191,0.2588191,0.9659258,-96.852821,50.398545)"
               style="fill:#c5a62b;fill-opacity:1;stroke:#e9ddaf;stroke-width:1.15309656;stroke-linecap:square;stroke-linejoin:miter;stroke-miterlimit:4;stroke-dasharray:none;stroke-dashoffset:0;stroke-opacity:1"
               id="path4727" />
            <ellipse
               ry="5.9717364"
               rx="2.2651412"
               cy="459.07269"
               cx="141.39973"
               transform="matrix(0.8660254,0.5,-0.5,0.8660254,268.48032,-9.1957886)"
               style="fill:#c8ab37;fill-opacity:1;stroke:#786721;stroke-width:3.45928955;stroke-linecap:square;stroke-linejoin:miter;stroke-miterlimit:4;stroke-dasharray:none;stroke-dashoffset:0;stroke-opacity:1"
               id="path4737" />
            <ellipse
               ry="5.9717364"
               rx="2.2651412"
               cy="459.07269"
               cx="141.39973"
               id="path4725"
               style="fill:#c5a62b;fill-opacity:1;stroke:#e9ddaf;stroke-width:1.15309656;stroke-linecap:square;stroke-linejoin:miter;stroke-miterlimit:4;stroke-dasharray:none;stroke-dashoffset:0;stroke-opacity:1"
               transform="matrix(0.8660254,0.5,-0.5,0.8660254,268.48032,-9.1957886)" />
          </g>
        </g>
        <g
           inkscape:label="Layer 1"
           id="layer1-0"
           transform="matrix(6.6345959,0,0,6.6345959,241.48158,236.71899)"
           inkscape:export-filename="/home/duffy/Documents/Work/Projects/FedBadges/Badges/is-this-thing-on-01.png"
           inkscape:export-xdpi="90"
           inkscape:export-ydpi="90"
           style="display:inline">
          <g
             id="g4221"
             transform="translate(-532.96875,-291.125)"
             style="display:inline">
            <path
               id="path4223"
               d="m 538.375,292.8125 c -0.20286,-0.0183 -0.28587,0.0462 -0.34375,0.0625 l 0,-0.0312 c -0.30401,0.0698 -0.55893,0.27835 -0.6875,0.5625 -3.3e-4,0.0104 -3.3e-4,0.0208 0,0.0312 -0.30868,0.75069 -0.45511,1.74026 -0.625,2.6875 -0.12434,-0.0874 -0.28169,-0.11353 -0.4276,-0.071 -0.14591,0.0426 -0.26455,0.14917 -0.3224,0.28972 -0.61114,1.48624 -1.00001,3.86682 -1,5.46875 0,1.77375 1.41044,3.21876 3.15625,3.21875 0.244,0 0.42723,-0.0747 0.625,-0.125 0.01,-0.002 0.0218,0.002 0.0312,0 0.58806,0.12921 1.2162,0.21875 1.90625,0.21875 0.72572,0 1.4047,-0.10265 2.03125,-0.25 0.34091,0.13297 0.69938,0.25 1.09375,0.25 1.75289,-1e-5 3.15625,-1.47626 3.15625,-3.25 3e-5,-1.60194 -0.38886,-3.98251 -1,-5.46875 -0.0579,-0.14055 -0.17649,-0.24716 -0.3224,-0.28972 -0.14591,-0.0426 -0.30326,-0.0164 -0.4276,0.071 -0.17085,-0.92408 -0.32176,-1.88755 -0.625,-2.625 -0.17215,-0.45086 -0.65125,-0.71702 -1.125,-0.625 -0.0104,-3.3e-4 -0.0208,-3.3e-4 -0.0312,0 -0.30401,0.0698 -0.55893,0.27835 -0.6875,0.5625 -0.0156,0.0319 -0.23124,0.30481 -0.59375,0.59375 -0.30434,0.24258 -0.72217,0.54027 -1.125,0.84375 -0.43224,-0.3297 -0.86273,-0.64644 -1.1875,-0.90625 -0.37369,-0.29895 -0.63668,-0.585 -0.65625,-0.625 -0.13982,-0.3202 -0.42891,-0.55926 -0.8125,-0.59375 z"
               style="display:inline;overflow:visible;visibility:visible;fill:#5aa02c;fill-opacity:1;fill-rule:nonzero;stroke:#668000;stroke-width:2.31077433;stroke-linecap:round;stroke-linejoin:round;stroke-miterlimit:4;stroke-dasharray:none;stroke-dashoffset:0;stroke-opacity:1;marker:none;enable-background:accumulate"
               inkscape:connector-curvature="0" />
            <circle
               r="2.6684244"
               cy="302.30688"
               cx="537.69659"
               transform="matrix(1.8367347,0,0,1,-446.91421,-0.3630509)"
               id="path4225"
               style="display:inline;overflow:visible;visibility:visible;fill:#5aa02c;fill-opacity:1;fill-rule:nonzero;stroke:#aade87;stroke-width:0.85251951;stroke-linecap:round;stroke-linejoin:round;stroke-miterlimit:4;stroke-dasharray:none;stroke-dashoffset:0;stroke-opacity:1;marker:none;enable-background:accumulate" />
            <path
               id="path4227"
               d="m 543.5625,293.4375 c -0.15222,0.0349 -0.27937,0.13897 -0.34375,0.28125 -0.22477,0.45936 -1.29159,1.14312 -2.34375,1.96875 -1.05216,0.82563 -2.13609,1.92936 -2.09375,3.53125 -4e-5,1.77643 1.43664,3.25 3.1875,3.25 1.75087,2e-5 3.15625,-1.47358 3.15625,-3.25 3e-5,-1.60047 -0.3883,-3.98114 -1,-5.46875 -0.0867,-0.22699 -0.32398,-0.35883 -0.5625,-0.3125 l 0,0 z"
               style="display:inline;overflow:visible;visibility:visible;fill:#5aa02c;fill-opacity:1;fill-rule:nonzero;stroke:#aade87;stroke-width:1.15538716;stroke-linecap:round;stroke-linejoin:round;stroke-miterlimit:4;stroke-dashoffset:0;stroke-opacity:1;marker:none;enable-background:accumulate"
               inkscape:connector-curvature="0" />
            <path
               id="path4229"
               d="m 538.15625,293.34375 c -0.15222,0.0349 -0.27937,0.13897 -0.34375,0.28125 -0.6117,1.48761 -0.99999,3.89955 -1,5.5 0,1.77642 1.43661,3.21876 3.1875,3.21875 1.75086,0 3.15626,-1.44232 3.15625,-3.21875 0.0423,-1.60189 -1.04159,-2.70562 -2.09375,-3.53125 -1.05216,-0.82563 -2.08774,-1.5094 -2.3125,-1.96875 -0.0999,-0.22885 -0.35337,-0.34891 -0.59375,-0.28125 l 0,0 z"
               style="display:inline;overflow:visible;visibility:visible;fill:#5aa02c;fill-opacity:1;fill-rule:nonzero;stroke:#aade87;stroke-width:1.15538716;stroke-linecap:round;stroke-linejoin:round;stroke-miterlimit:4;stroke-dashoffset:0;stroke-opacity:1;marker:none;enable-background:accumulate"
               inkscape:connector-curvature="0" />
            <circle
               r="2.8681023"
               cy="299.34802"
               cx="540.47394"
               transform="matrix(1.2151899,0,0,1.2151899,-115.83255,-64.81602)"
               id="path4231"
               style="display:inline;overflow:visible;visibility:visible;fill:#e5ff80;fill-opacity:1;fill-rule:nonzero;stroke:#aa8800;stroke-width:0.95078731;stroke-linecap:round;stroke-linejoin:round;stroke-miterlimit:4;stroke-dasharray:none;stroke-dashoffset:0;stroke-opacity:1;marker:none;enable-background:accumulate" />
            <circle
               r="2.8681023"
               cy="299.34802"
               cx="540.47394"
               style="display:inline;overflow:visible;visibility:visible;fill:#ffdd55;fill-opacity:1;fill-rule:nonzero;stroke:#ffffff;stroke-width:1.14602244;stroke-linecap:round;stroke-linejoin:round;stroke-miterlimit:4;stroke-dasharray:none;stroke-dashoffset:0;stroke-opacity:1;marker:none;enable-background:accumulate"
               id="path4233"
               transform="matrix(1.0081715,0,0,1.0081715,-3.9444912,-2.5329662)" />
            <path
               id="path4235"
               d="m 537.95358,296.76021 3.0273,2.87262 2.96101,-2.67375"
               style="fill:none;stroke:#aa8800;stroke-width:1.15538716px;stroke-linecap:butt;stroke-linejoin:miter;stroke-opacity:1"
               inkscape:connector-curvature="0" />
            <path
               sodipodi:nodetypes="csscc"
               id="path4237"
               d="m 540.87326,301.29034 c 0,1.51306 -1.19546,2.74104 -2.66843,2.74104 -1.47297,0 -2.66842,-1.22798 -2.66842,-2.74104 0,-1.51305 0.39674,-3.90753 0.96208,-5.28239 0.71056,1.45221 4.44738,2.53497 4.37477,5.28239 z"
               style="display:inline;overflow:visible;visibility:visible;fill:#5aa02c;fill-opacity:1;fill-rule:nonzero;stroke:#aade87;stroke-width:1.15538716;stroke-linecap:round;stroke-linejoin:round;stroke-miterlimit:4;stroke-dashoffset:0;stroke-opacity:1;marker:none;enable-background:accumulate"
               transform="translate(-0.07261018,0.5082713)"
               inkscape:connector-curvature="0" />
            <path
               style="display:inline;overflow:visible;visibility:visible;fill:#5aa02c;fill-opacity:1;fill-rule:nonzero;stroke:#aade87;stroke-width:1.15538716;stroke-linecap:round;stroke-linejoin:round;stroke-miterlimit:4;stroke-dashoffset:0;stroke-opacity:1;marker:none;enable-background:accumulate"
               d="m 541.13809,301.87122 c 0,1.51306 1.19546,2.74104 2.66843,2.74104 1.47297,0 2.66842,-1.22798 2.66842,-2.74104 0,-1.51305 -0.39674,-3.90753 -0.96208,-5.28239 -0.71056,1.45221 -4.44738,2.53497 -4.37477,5.28239 z"
               id="path4239"
               sodipodi:nodetypes="csscc"
               inkscape:connector-curvature="0" />
          </g>
        </g>
      </g>
    </g>
  </g>
</svg>
