<?xml version="1.0" encoding="UTF-8" standalone="no"?>
<!-- Created with Inkscape (http://www.inkscape.org/) -->

<svg
   xmlns:dc="http://purl.org/dc/elements/1.1/"
   xmlns:cc="http://creativecommons.org/ns#"
   xmlns:rdf="http://www.w3.org/1999/02/22-rdf-syntax-ns#"
   xmlns:svg="http://www.w3.org/2000/svg"
   xmlns="http://www.w3.org/2000/svg"
   xmlns:xlink="http://www.w3.org/1999/xlink"
   xmlns:sodipodi="http://sodipodi.sourceforge.net/DTD/sodipodi-0.dtd"
   xmlns:inkscape="http://www.inkscape.org/namespaces/inkscape"
   id="svg2"
   height="44mm"
   width="100mm"
   version="1.1"
   viewBox="0 0 354.33071 155.90551"
   inkscape:version="0.91 r13725"
   sodipodi:docname="prompt.svg">
  <defs
     id="defs12" />
  <sodipodi:namedview
     pagecolor="#404040"
     bordercolor="#666666"
     borderopacity="1"
     objecttolerance="10"
     gridtolerance="10"
     guidetolerance="10"
     inkscape:pageopacity="0"
     inkscape:pageshadow="2"
     inkscape:window-width="1848"
     inkscape:window-height="1056"
     id="namedview10"
     showgrid="false"
     inkscape:zoom="1.1373556"
     inkscape:cx="76.053614"
     inkscape:cy="77.952756"
     inkscape:window-x="72"
     inkscape:window-y="0"
     inkscape:window-maximized="1"
     inkscape:current-layer="svg2" />
  <metadata
     id="metadata7">
    <rdf:RDF>
      <cc:Work
         rdf:about="">
        <dc:format>image/svg+xml</dc:format>
        <dc:type
           rdf:resource="http://purl.org/dc/dcmitype/StillImage" />
        <dc:title></dc:title>
      </cc:Work>
    </rdf:RDF>
  </metadata>
  <g
     id="g11879"
     transform="translate(-120.06132,-211.22466)">
    <path
       id="path4346"
       d="m 215.92,230.31 a 13.181,13.181 0 0 0 -9.9531,4.3535 l -13.32,14.777 a 13.181,13.181 0 0 0 1.1602,18.785 l 24.682,21.381 -23.348,21.641 a 13.181,13.181 0 0 0 -0.93164,18.377 l 12.281,13.943 a 13.181,13.181 0 0 0 18.723,1.0723 l 27.91,-25.19 a 13.181,13.181 0 0 0 3.1992,10.184 l 12.279,13.943 a 13.181,13.181 0 0 0 18.723,1.0723 l 27.914,-25.201 a 13.181,13.181 0 0 0 3.1992,10.186 l 12.279,13.943 a 13.181,13.181 0 0 0 18.723,1.0723 l 51.408,-46.412 a 13.181,13.181 0 0 0 -0.21484,-19.756 l -52.033,-44.957 a 13.181,13.181 0 0 0 -18.406,1.1484 l -13.31,14.79 a 13.181,13.181 0 0 0 -3.3066,7.4707 l -27.08,-23.396 a 13.181,13.181 0 0 0 -18.406,1.1484 l -13.32,14.777 a 13.181,13.181 0 0 0 -3.3066,7.4727 l -27.082,-23.398 a 13.181,13.181 0 0 0 -8.4531,-3.2051 z"
       xlink:href="#text4257"
       inkscape:connector-curvature="0"
       style="fill:#ffffff" />
    <g
       id="text4257">
      <path
         id="path4447"
         d="m 267.79,288.44 -51.409,46.414 -12.28,-13.945 34.134,-31.636 -35.799,-31.012 13.32,-14.777 52.033,44.957 z"
         inkscape:connector-curvature="0" />
      <path
         id="path4449"
         d="m 329.9,288.44 -51.409,46.414 -12.28,-13.945 34.134,-31.636 -35.799,-31.012 13.32,-14.777 52.033,44.957 z"
         inkscape:connector-curvature="0" />
      <path
         id="path4451"
         d="m 392.02,288.44 -51.409,46.414 -12.28,-13.945 34.134,-31.636 -35.799,-31.012 13.32,-14.777 52.033,44.957 z"
         inkscape:connector-curvature="0" />
    </g>
  </g>
</svg>
