<?xml version="1.0" encoding="UTF-8" standalone="no"?>
<!-- Created with Inkscape (http://www.inkscape.org/) -->

<svg
   xmlns:dc="http://purl.org/dc/elements/1.1/"
   xmlns:cc="http://creativecommons.org/ns#"
   xmlns:rdf="http://www.w3.org/1999/02/22-rdf-syntax-ns#"
   xmlns:svg="http://www.w3.org/2000/svg"
   xmlns="http://www.w3.org/2000/svg"
   xmlns:sodipodi="http://sodipodi.sourceforge.net/DTD/sodipodi-0.dtd"
   xmlns:inkscape="http://www.inkscape.org/namespaces/inkscape"
   width="100mm"
   height="44mm"
   viewBox="0 0 354.33071 155.90551"
   id="svg2"
   version="1.1"
   inkscape:version="0.91 r13725"
   sodipodi:docname="python3_.svg">
  <defs
     id="defs4">
    <linearGradient
       id="linearGradient4689">
      <stop
         style="stop-color:#5a9fd4;stop-opacity:1;"
         offset="0"
         id="stop4691" />
      <stop
         style="stop-color:#306998;stop-opacity:1;"
         offset="1"
         id="stop4693" />
    </linearGradient>
    <linearGradient
       id="linearGradient4671">
      <stop
         style="stop-color:#ffd43b;stop-opacity:1;"
         offset="0"
         id="stop4673" />
      <stop
         style="stop-color:#ffe873;stop-opacity:1"
         offset="1"
         id="stop4675" />
    </linearGradient>
    <clipPath
       clipPathUnits="userSpaceOnUse"
       id="clipPath4765">
      <path
         d="m 89.1139,116.38678 48.55783,0 0,-48.48487 -48.55783,0 0,48.48487 z"
         id="path4767"
         inkscape:connector-curvature="0"
         style="clip-rule:evenodd" />
    </clipPath>
    <clipPath
       clipPathUnits="userSpaceOnUse"
       id="clipPath4769">
      <path
         d="M 0,0 227,0 227,255 0,255 0,0 Z"
         id="path4771"
         inkscape:connector-curvature="0" />
    </clipPath>
    <clipPath
       clipPathUnits="userSpaceOnUse"
       id="clipPath4773">
      <path
         d="m 120.25297,152.52153 33.57773,0 0,-61.81035 -33.57773,0 0,61.81035 z"
         id="path4775"
         inkscape:connector-curvature="0"
         style="clip-rule:evenodd" />
    </clipPath>
    <clipPath
       clipPathUnits="userSpaceOnUse"
       id="clipPath4777">
      <path
         d="M 0,0 227,0 227,255 0,255 0,0 Z"
         id="path4779"
         inkscape:connector-curvature="0" />
    </clipPath>
    <clipPath
       clipPathUnits="userSpaceOnUse"
       id="clipPath4781">
      <path
         d="m 120.25297,152.52153 33.57773,0 0,-61.81035 -33.57773,0 0,61.81035 z"
         id="path4783"
         inkscape:connector-curvature="0"
         style="clip-rule:evenodd" />
    </clipPath>
    <clipPath
       clipPathUnits="userSpaceOnUse"
       id="clipPath4785">
      <path
         d="M 0,0 227,0 227,255 0,255 0,0 Z"
         id="path4787"
         inkscape:connector-curvature="0" />
    </clipPath>
  </defs>
  <sodipodi:namedview
     id="base"
     pagecolor="#404040"
     bordercolor="#666666"
     borderopacity="1.0"
     inkscape:pageopacity="0"
     inkscape:pageshadow="2"
     inkscape:zoom="2.28"
     inkscape:cx="262.52655"
     inkscape:cy="-14.188246"
     inkscape:document-units="mm"
     inkscape:current-layer="g11879"
     showgrid="false"
     inkscape:window-width="1848"
     inkscape:window-height="1056"
     inkscape:window-x="72"
     inkscape:window-y="0"
     inkscape:window-maximized="1"
     showguides="true"
     inkscape:guide-bbox="true"
     fit-margin-top="5"
     fit-margin-left="5"
     fit-margin-bottom="5"
     fit-margin-right="5" />
  <metadata
     id="metadata7">
    <rdf:RDF>
      <cc:Work
         rdf:about="">
        <dc:format>image/svg+xml</dc:format>
        <dc:type
           rdf:resource="http://purl.org/dc/dcmitype/StillImage" />
        <dc:title />
      </cc:Work>
    </rdf:RDF>
  </metadata>
  <g
     style="display:inline"
     id="g11879"
     inkscape:groupmode="layer"
     inkscape:label="all"
     transform="translate(-120.06159,-210.79887)">
    <g
       id="g8348"
       transform="translate(-7.2137478,-0.08415774)">
      <path
         transform="translate(120.06159,210.79887)"
         d="m 126.20508,16.275391 c -1.14506,0.01855 -2.29275,0.106845 -3.43555,0.259765 -6.77777,0.906984 -12.79771,3.215258 -17.18164,6.50586 l 2.32617,-1.384766 c -5.57131,2.562983 -9.343363,7.511542 -11.117185,11.71875 -1.728268,4.099161 -2.155136,7.674497 -2.412109,10.537109 -1.698749,15.052404 7.019854,26.403668 12.886714,32.324219 5.88022,5.93402 7.62279,7.337933 7.68555,10.38086 0.008,0.393215 -0.64658,1.465252 -1.85547,2.896484 -6.00723,-1.604691 -12.12283,-3.272283 -17.544919,-4.521484 -7.591372,-1.748987 -13.734737,-3.123119 -20.195313,-3.001954 -6.33246,0.118805 -12.171056,1.761698 -17.722656,4.699219 -5.5516,2.937521 -12.404135,7.422623 -13.455078,17.468747 -1.103358,10.54736 4.757646,20.06545 11.755859,25.42578 13.320021,10.24635 30.890381,12.76398 46.738277,7.6543 5.11278,-1.64846 12.15812,-3.00078 19.71094,-6.68945 1.42512,-0.69601 2.70682,-1.56088 4.0293,-2.37695 8.70729,8.24662 21.08651,11.05436 32.67773,11.2832 0.49529,0.01 0.52289,0.0113 0.0312,0.002 1.53086,0.0294 3.07374,-0.002 4.62305,-0.10156 3.87393,-0.24622 7.73751,-0.89906 11.51562,-2.11719 5.11279,-1.64847 12.15813,-3.00078 19.71094,-6.68945 1.48461,-0.72507 2.82339,-1.62174 4.19727,-2.47656 5.21419,4.68311 11.68338,7.52039 18.16601,9.30273 9.89188,2.71969 20.50108,3.09155 30.51368,-0.13672 5.11278,-1.64847 12.15812,-3.00078 19.71093,-6.68945 2.6388,-1.28876 5.05139,-2.84198 7.38086,-4.50781 6.8629,1.51706 13.06006,2.88943 18.94141,3.03906 8.17707,0.20805 13.05428,0.20918 16.82812,-0.11719 1.88693,-0.16319 2.30346,1.31104 8.12305,-2.43555 1.4549,-0.93664 3.77767,-2.67097 5.17188,-6.38867 1.39421,-3.7177 0.49694,-8.5468 -0.89258,-10.97265 -2.77904,-4.85172 -4.66982,-4.83229 -5.81055,-5.4043 -4.56293,-2.28806 -6.02912,-2.0668 -8.92969,-2.69141 -2.90056,-0.62461 -6.00615,-1.210227 -8.43359,-1.689451 -0.42523,-0.08395 -1.02525,-0.21813 -1.46289,-0.302734 3.75346,-7.609776 5.81827,-15.888997 5.09375,-24.591797 -0.16018,-1.924006 -0.51652,-3.824316 -1.02344,-5.691406 A 12.750785,12.750785 0 0 0 305.375,54.417969 l -1.61328,-3.611328 c 1.63837,-5.219235 -0.67368,-12.916743 -4.18945,-16.34961 a 12.750785,12.750785 0 0 0 -1.3711,-1.162109 c -2.06006,-1.509414 -4.05831,-3.667669 -6.19726,-6.587891 l 0.49218,0.722657 c -4.99526,-7.905377 -15.39564,-12.066359 -24.48828,-10.84961 -6.77778,0.906986 -12.79774,3.215295 -17.18164,6.50586 l 2.32617,-1.384766 c -5.57129,2.562986 -9.34336,7.511541 -11.11718,11.71875 -1.72827,4.099161 -2.15514,7.674499 -2.41211,10.537109 -1.69876,15.052449 7.01989,26.403183 12.88672,32.324219 5.88016,5.934507 7.62278,7.339884 7.68554,10.382812 0.008,0.393235 -0.64673,1.463964 -1.85547,2.894532 -6.01606,-1.607106 -12.13952,-3.276975 -17.56836,-4.527344 -3.60972,-0.831392 -6.86315,-1.551127 -10.00781,-2.091797 0.58925,-4.661843 0.39902,-9.417585 -0.78125,-14.162109 a 12.750785,12.750785 0 0 0 2.80469,-14.357422 l -1.61328,-3.611328 c 1.64038,-5.219432 -0.67368,-12.918717 -4.18945,-16.351563 a 12.750785,12.750785 0 0 0 -1.3711,-1.162109 c -2.06005,-1.509407 -4.0583,-3.667657 -6.19726,-6.587891 l 0.49218,0.722657 C 215.84283,20.99594 208.10261,16.690163 200.5625,16.345703 l -0.002,0 c -1.72943,-0.07984 -3.45334,0.0062 -5.15821,0.234375 -6.77818,0.90704 -12.79817,3.217088 -17.17968,6.50586 l 2.32617,-1.384766 c -5.57129,2.562986 -9.34337,7.511541 -11.11719,11.71875 -1.72826,4.099161 -2.15514,7.674499 -2.41211,10.537109 -1.69875,15.052449 7.0199,26.403183 12.88672,32.324219 5.88017,5.934507 7.62279,7.339884 7.68555,10.382812 0.008,0.389412 -0.62082,1.43702 -1.80469,2.845704 -9.87295,-2.704066 -19.36039,-5.249013 -27.5918,-6.527344 0.28061,-2.263441 0.39531,-4.562431 0.29883,-6.892578 -0.10052,-2.427649 -0.48375,-4.880854 -1.10742,-7.306641 a 12.750785,12.750785 0 0 0 2.8125,-14.363281 l -1.61328,-3.611328 c 1.64037,-5.219432 -0.67368,-12.918717 -4.18946,-16.351563 a 12.750785,12.750785 0 0 0 -1.37109,-1.162109 c -2.06005,-1.509407 -4.0583,-3.667657 -6.19727,-6.587891 l 0.49219,0.722657 c -1.56653,-2.479136 -3.62465,-4.726933 -6.04687,-6.501954 -4.37205,-3.225081 -9.85367,-4.736795 -15.06836,-4.652343 z m -12.85352,35.521484 a 12.750785,12.750785 0 0 0 0.17188,0.447266 l -0.0312,-0.03711 c 1.31142,3.540849 1.11729,3.400859 -0.14063,-0.410156 z"
         id="path8346"
         style="display:inline;fill:#ffffff;fill-opacity:1;stroke:none;stroke-width:1.90750694;stroke-opacity:1"
         inkscape:original="M 126.41211 29.023438 C 125.77994 29.033677 125.12984 29.082368 124.46094 29.171875 C 119.10977 29.887955 115.9056 31.239111 113.24219 33.238281 C 108.56189 35.391371 107.46004 40.644117 107.05273 45.279297 C 104.60683 66.386127 127.34726 69.099786 127.70312 86.353516 C 127.85622 93.776276 122.10595 99.311892 116.78711 103.62891 C 99.906648 99.056742 83.146549 94.596741 75.599609 94.738281 C 67.970059 94.881421 57.478801 99.60053 56.863281 105.48438 C 56.265603 111.19778 59.078337 115.93483 63.701172 119.4707 C 72.475839 126.22622 87.846642 128.62402 98.765625 125.10352 C 104.76223 123.17009 111.23392 121.80675 116.79297 119.0918 C 119.31012 117.86245 123.61516 114.90778 126.69727 112.33984 L 126.72656 112.3125 C 128.15608 112.61314 129.521 112.90746 130.9082 113.20508 C 135.10503 121.54955 147.55497 126.47666 159.35156 126.70898 C 159.35756 126.7091 159.36334 126.70887 159.36914 126.70898 C 160.56789 126.73208 161.76012 126.70801 162.93555 126.63281 C 165.89475 126.44516 168.75062 125.94274 171.35352 125.10352 C 177.35013 123.17009 183.82181 121.80675 189.38086 119.0918 C 191.89801 117.86245 196.20305 114.90778 199.28516 112.33984 C 200.74001 112.64557 202.12737 112.95072 203.53906 113.25781 C 209.27453 124.54748 230.15097 129.54984 243.94141 125.10352 C 249.93802 123.17009 256.4097 121.80675 261.96875 119.0918 C 264.4859 117.86245 268.79094 114.90778 271.87305 112.33984 C 281.41463 114.34493 290.3668 116.23618 294.21094 116.33398 C 326.17471 117.14725 307.51017 113.86988 297.47461 111.88867 C 292.0073 110.80932 284.69915 109.57701 276.94922 107.61719 C 277.01882 107.54419 277.09549 107.47154 277.16406 107.39844 L 276.96875 107.57617 C 295.13156 88.614604 299.76422 59.691446 265.28906 51.851562 C 263.91998 47.461622 269.40696 44.613091 270.63477 47.800781 C 274.79826 50.139759 279.85652 50.882734 284.57422 51.671875 C 285.68822 54.336826 287.75416 56.928289 290.33398 62.054688 L 289.92969 54.882812 L 293.73438 59.619141 L 289.28516 49.662109 C 291.48956 48.073882 293.05819 45.915838 290.66602 43.580078 C 287.14575 41.000768 284.29867 37.762484 281.71875 34.240234 C 279.26431 30.355904 275.05041 28.500717 269.69922 29.216797 C 264.34805 29.932877 261.14388 31.284043 258.48047 33.283203 C 253.80017 35.436303 252.69833 40.689029 252.29102 45.324219 C 249.84512 66.431049 272.58555 69.146671 272.94141 86.400391 C 273.09451 93.823151 267.34423 99.356816 262.02539 103.67383 C 262.01839 103.67183 262.01121 103.66997 262.00391 103.66797 C 262.02991 103.64107 262.0669 103.61058 262.0918 103.58398 L 261.97266 103.66016 C 245.11023 99.093048 228.37688 94.641822 220.83789 94.783203 C 218.34053 94.830053 215.53898 95.375284 212.875 96.283203 C 222.92111 78.678432 220.8291 58.248042 192.70117 51.851562 C 191.76054 48.835451 194.05532 46.546671 195.98242 46.443359 C 196.85404 46.401979 197.6493 46.809159 198.03125 47.800781 C 202.20045 50.142963 207.26702 50.885428 211.99023 51.675781 C 213.10469 54.339152 215.16771 56.931166 217.74609 62.054688 L 217.3418 54.882812 L 221.14648 59.619141 L 216.69922 49.660156 C 218.90247 48.072072 220.46951 45.915062 218.07812 43.580078 C 214.55785 41.000768 211.71078 37.762484 209.13086 34.240234 C 207.13406 31.080154 203.97155 29.264006 199.98047 29.082031 C 199.06113 29.039121 198.0971 29.082532 197.09375 29.216797 C 191.74258 29.932877 188.54036 31.284043 185.87695 33.283203 C 181.19665 35.436303 180.09481 40.689029 179.6875 45.324219 C 177.2416 66.431049 199.98203 69.146671 200.33789 86.400391 C 200.49095 93.821196 194.74345 99.35341 189.42578 103.66992 C 189.42278 103.66904 189.41902 103.66897 189.41602 103.66797 C 189.44202 103.64107 189.47901 103.61058 189.50391 103.58398 L 189.38477 103.6582 C 173.56534 99.373593 157.8609 95.194633 149.75391 94.810547 C 149.21246 94.784547 148.70605 94.774353 148.23438 94.783203 C 145.74249 94.829953 142.9478 95.373046 140.28906 96.277344 C 147.64946 83.375515 148.48747 68.958096 137.33789 59.658203 C 136.77638 59.187312 136.18005 58.731047 135.55664 58.287109 C 135.55364 58.285009 135.54987 58.28345 135.54688 58.28125 C 131.6672 55.52077 126.57771 53.298309 120.10547 51.820312 C 118.94955 48.027496 122.90298 45.403027 124.77148 46.849609 C 125.02947 47.067219 125.24599 47.363195 125.39648 47.753906 C 125.41298 47.763206 125.43077 47.770087 125.44727 47.779297 C 125.45027 47.787397 125.45628 47.792601 125.45898 47.800781 C 129.62304 50.140069 134.68216 50.882617 139.40039 51.671875 C 140.51444 54.33665 142.57854 56.928608 145.1582 62.054688 L 144.75391 54.882812 L 148.55859 59.619141 L 144.11133 49.660156 C 146.31458 48.072072 147.88162 45.915062 145.49023 43.580078 C 141.96996 41.000768 139.12289 37.762484 136.54297 34.240234 C 135.77064 33.017971 134.82417 31.998752 133.72266 31.195312 C 131.75078 29.734292 129.27633 28.977052 126.41211 29.023438 z M 85.1875 104.54102 C 88.926503 104.52862 92.677655 104.78685 96.3125 105.64453 C 97.427849 105.90771 102.69901 107.10947 109.0625 108.53906 L 108.94531 108.61328 C 97.242469 114.3938 80.524387 118.54618 73.400391 113.09375 C 72.860061 112.67271 72.370247 112.20125 71.949219 111.66406 C 68.952489 107.8405 78.691401 104.74683 81.457031 104.63086 C 82.696216 104.57886 83.941166 104.54512 85.1875 104.54102 z M 157.75977 104.54102 C 158.38293 104.53902 159.00571 104.54399 159.62891 104.55859 C 159.63491 104.55873 159.64058 104.55846 159.64648 104.55859 C 162.7566 104.63169 165.85946 104.93114 168.88281 105.64453 C 169.99905 105.90792 175.27413 107.11185 181.64453 108.54297 L 181.08789 108.89258 C 176.54645 111.09261 171.30801 113.04011 166.17188 114.2793 C 165.40161 113.66445 161.45656 112.87279 152.23633 111.84375 C 149.79062 111.5708 146.99983 111.07993 143.99414 110.45703 C 143.56541 107.2091 151.57732 104.73433 154.04492 104.63086 C 155.27897 104.57926 156.51865 104.54512 157.75977 104.54102 z M 230.36328 104.54102 C 234.10228 104.52862 237.85344 104.78685 241.48828 105.64453 C 242.60347 105.90767 247.8741 107.10974 254.23633 108.53906 L 253.62891 108.92383 C 247.28426 111.98974 239.5844 114.54757 232.73242 115.38867 C 237.86105 114.68618 239.45662 113.59576 224.88672 111.88867 C 222.43291 111.60117 219.60362 111.0908 216.58398 110.4668 C 216.13763 107.21399 224.16271 104.73444 226.63281 104.63086 C 227.872 104.57886 229.11695 104.54512 230.36328 104.54102 z "
         inkscape:radius="12.74951"
         sodipodi:type="inkscape:offset" />
      <g
         transform="translate(0.22300119,-0.05285096)"
         id="g8166">
        <path
           style="display:inline;fill:#64b629;fill-opacity:1;stroke:#4a8e19;stroke-width:1.90750694;stroke-opacity:1"
           d="m 244.29917,240.0233 c 5.35119,-0.71608 9.56617,1.13833 12.02061,5.02266 2.57993,3.52225 5.42625,6.76108 8.94652,9.34039 3.69287,3.60578 -2.03333,6.80879 -5.0078,8.1025 l -0.45013,0 -0.56268,0 c -4.73743,-0.7935 -9.82666,-1.53192 -14.01058,-3.88237 -1.22781,-3.18769 -6.71448,-0.33867 -5.34541,4.05126 34.497,7.84485 29.83881,36.79995 11.64735,55.7609 7.75511,1.96187 14.99585,3.65781 20.5376,4.2763 27.66071,3.08711 8.02008,4.05197 -3.26352,4.44505 -3.84305,0.13388 -12.79657,-1.9898 -22.33815,-3.9949 -3.08211,2.56795 -7.3859,5.52273 -9.90305,6.75208 -5.55905,2.71496 -12.03198,4.07936 -18.02859,6.01279 -16.62579,5.36049 -43.57337,-3.00255 -41.83991,-19.57331 0.61552,-5.88384 11.10749,-10.60385 18.73704,-10.74699 7.54694,-0.14154 24.30725,4.3181 41.18771,8.89026 5.31884,-4.31701 11.06898,-9.85143 10.91589,-17.27419 -0.35587,-17.25373 -23.09604,-19.96817 -20.65014,-41.075 0.40731,-4.63518 1.50912,-9.88831 6.18942,-12.0414 2.66341,-1.99917 5.86665,-3.34995 11.21782,-4.06603 z m -43.06516,75.41306 c -2.76563,0.11598 -12.50592,3.20996 -9.50919,7.03351 5.97376,7.62195 24.61404,3.19331 37.249,-3.0946 -6.45529,-1.44982 -11.75808,-2.65994 -12.88523,-2.92591 -4.84646,-1.14357 -9.89784,-1.2209 -14.85458,-1.013 z"
           id="path5661-0"
           inkscape:connector-curvature="0"
           sodipodi:nodetypes="cccccccccsscsssscscccsscss" />
        <path
           sodipodi:nodetypes="cccccc"
           inkscape:connector-curvature="0"
           id="path7931"
           d="m 335.86502,259.00944 5.12034,11.46109 -3.80523,-4.73546 0.40519,7.17052 c -3.08207,-6.12441 -5.44875,-8.62843 -6.30995,-11.96541 z"
           style="color:#000000;font-style:normal;font-variant:normal;font-weight:normal;font-stretch:normal;font-size:xx-small;line-height:normal;font-family:sans-serif;-inkscape-font-specification:sans-serif;text-indent:0;text-align:start;text-decoration:none;text-decoration-line:none;letter-spacing:normal;word-spacing:normal;text-transform:none;direction:ltr;block-progression:tb;writing-mode:lr-tb;baseline-shift:baseline;text-anchor:start;display:inline;overflow:visible;visibility:visible;fill:#db3279;fill-opacity:1;stroke:none;stroke-width:1;marker:none;enable-background:accumulate" />
        <path
           sodipodi:nodetypes="cccccccccsscsssscscccsscss"
           inkscape:connector-curvature="0"
           id="path7933"
           d="m 316.94919,240.06939 c 5.35119,-0.71608 9.56617,1.13832 12.02061,5.02265 2.57992,3.52225 5.42625,6.76109 8.94652,9.3404 3.69287,3.60578 -2.03333,6.80879 -5.0078,8.1025 l -0.45014,0 -0.56267,0 c -4.73743,-0.79351 -9.82666,-1.53192 -14.01058,-3.88237 -1.22781,-3.18769 -6.71449,-0.33868 -5.34541,4.05126 34.497,7.84485 29.83881,36.79995 11.64735,55.76089 7.7551,1.96187 14.99933,3.62742 20.5376,4.27631 24.12597,2.82673 3.99996,3.96617 -3.26352,4.44504 -3.83706,0.25297 -12.79657,-1.9898 -22.33815,-3.99489 -3.08211,2.56794 -7.3859,5.52273 -9.90305,6.75208 -5.55905,2.71495 -12.03198,4.07935 -18.02859,6.01278 -16.62579,5.3605 -43.57337,-3.00254 -41.83991,-19.57331 0.61552,-5.88383 11.10749,-10.60385 18.73704,-10.74699 7.54694,-0.14153 24.30725,4.3181 41.18771,8.89026 5.31884,-4.31701 11.06898,-9.85143 10.91588,-17.27419 -0.35586,-17.25372 -23.09603,-19.96816 -20.65013,-41.07499 0.40731,-4.63519 1.50912,-9.88831 6.18942,-12.04141 2.66341,-1.99916 5.86665,-3.34994 11.21782,-4.06602 z m -43.06516,75.41306 c -2.76563,0.11597 -12.50592,3.20995 -9.50919,7.03351 5.97376,7.62194 24.61404,3.1933 37.249,-3.09461 -6.45529,-1.44982 -11.75808,-2.65994 -12.88523,-2.9259 -4.84646,-1.14357 -9.89784,-1.2209 -14.85458,-1.013 z"
           style="display:inline;fill:#64b629;fill-opacity:1;stroke:#4a8e19;stroke-width:1.90750694;stroke-opacity:1" />
        <g
           transform="matrix(1.907507,0,0,1.907507,-680.52498,-340.2578)"
           id="g7945">
          <path
             sodipodi:nodetypes="cccccc"
             inkscape:connector-curvature="0"
             id="path7947"
             d="m 570.89055,314.16254 2.68431,6.00841 -1.99487,-2.48254 0.21242,3.75911 c -1.61576,-3.21069 -2.85648,-4.52341 -3.30796,-6.2728 z"
             style="color:#000000;font-style:normal;font-variant:normal;font-weight:normal;font-stretch:normal;font-size:xx-small;line-height:normal;font-family:sans-serif;-inkscape-font-specification:sans-serif;text-indent:0;text-align:start;text-decoration:none;text-decoration-line:none;letter-spacing:normal;word-spacing:normal;text-transform:none;direction:ltr;block-progression:tb;writing-mode:lr-tb;baseline-shift:baseline;text-anchor:start;display:inline;overflow:visible;visibility:visible;fill:#db3279;fill-opacity:1;stroke:none;stroke-width:1;marker:none;enable-background:accumulate" />
          <path
             sodipodi:nodetypes="cccccccccsscsssscscccsscss"
             inkscape:connector-curvature="0"
             id="path7949"
             d="m 560.97403,304.23332 c 2.80533,-0.3754 5.01501,0.59676 6.30174,2.6331 1.35251,1.84652 2.84468,3.54446 4.69016,4.89665 1.93597,1.89031 -1.06596,3.56947 -2.62531,4.24769 l -0.23598,0 -0.29498,0 c -2.48357,-0.41599 -5.15157,-0.8031 -7.34497,-2.03531 -0.64367,-1.67113 -3.52003,-0.17755 -2.8023,2.12385 18.08486,4.11262 15.64283,19.29217 6.10606,29.23234 4.06557,1.0285 7.8988,1.67565 10.76672,2.24183 5.26109,1.03864 15.04595,2.75664 -1.71088,2.33029 -2.01527,-0.0513 -6.70853,-1.04314 -11.71065,-2.0943 -1.61578,1.34623 -3.87202,2.89526 -5.19162,3.53974 -2.9143,1.4233 -6.3077,2.13858 -9.45139,3.15217 -8.71598,2.81021 -22.8431,-1.57407 -21.93434,-10.2612 0.32268,-3.08457 5.82304,-5.55901 9.82279,-5.63405 3.95644,-0.0742 12.74294,2.26374 21.59243,4.66067 2.78837,-2.26317 5.80285,-5.16456 5.72259,-9.0559 -0.18656,-9.04517 -12.10797,-10.4682 -10.82572,-21.53334 0.21353,-2.42997 0.79115,-5.18389 3.24477,-6.31264 1.39628,-1.04805 3.07556,-1.75619 5.88088,-2.13159 z m -22.57667,39.53488 c -1.44987,0.0608 -6.55616,1.6828 -4.98514,3.68728 3.13171,3.99576 12.90377,1.67407 19.52758,-1.62233 -3.38415,-0.76006 -6.16411,-1.39446 -6.75501,-1.53389 -2.54073,-0.59951 -5.18889,-0.64005 -7.78743,-0.53106 z"
             style="display:inline;fill:#64b629;fill-opacity:1;stroke:#4a8e19;stroke-opacity:1" />
          <ellipse
             ry="1.297906"
             rx="2.1238463"
             cy="562.14313"
             cx="309.40323"
             transform="matrix(0,1,1,0,0,0)"
             id="ellipse7951"
             style="color:#000000;display:inline;overflow:visible;visibility:visible;fill:#000000;fill-opacity:1;fill-rule:nonzero;stroke:none;stroke-width:10;marker:none;enable-background:accumulate" />
          <ellipse
             ry="0.49220997"
             rx="0.88493598"
             cy="313.5676"
             cx="-569.00269"
             transform="scale(-1,1)"
             id="ellipse7953"
             style="color:#000000;display:inline;overflow:visible;visibility:visible;fill:#326011;fill-opacity:1;fill-rule:nonzero;stroke:none;stroke-width:10;marker:none;enable-background:accumulate" />
          <path
             sodipodi:nodetypes="cssccccssscccssscccssscccssc"
             inkscape:connector-curvature="0"
             id="path7955"
             d="m 567.81512,321.32037 -8.37739,0 c -1.30735,0 -2.35983,-1.05248 -2.35983,-2.35983 0,-1.30734 1.05248,-2.35982 3.85026,-1.80715 2.79778,0.55267 5.03247,2.18898 6.88696,4.16698 z m 0.61946,0.70795 c 1.15933,1.43893 1.91469,3.02889 2.30083,4.71966 l -9.40982,0 c -1.30735,0 -2.35983,-1.05248 -2.35983,-2.35983 0,-1.30734 1.05248,-2.35983 2.35983,-2.35983 z m 2.41882,5.30962 c 0.26874,1.51935 0.25273,3.10818 0,4.71966 l -5.98807,0 c -1.30734,0 -2.35983,-1.05249 -2.35983,-2.35983 0,-1.30735 1.05249,-2.35983 2.35983,-2.35983 z m -0.0884,5.30961 c -0.30067,1.56438 -0.82068,3.16104 -1.53388,4.71966 l -2.12385,0 c -1.30735,0 -2.35983,-1.05248 -2.35983,-2.35983 -5e-5,-1.30734 1.05244,-2.35983 2.35978,-2.35983 z m -1.76987,5.19163 c -0.7466,1.54172 -1.66229,3.06447 -2.7433,4.51312 -0.81629,-0.37049 -1.3864,-1.19539 -1.3864,-2.15329 -5e-5,-1.30735 1.05244,-2.35983 2.35978,-2.35983 z"
             style="color:#000000;display:inline;overflow:visible;visibility:visible;fill:#79db32;stroke:none;stroke-width:10;marker:none;enable-background:accumulate" />
          <path
             sodipodi:nodetypes="cc"
             inkscape:connector-curvature="0"
             id="path7957"
             d="m 564.88839,345.21934 c -0.91711,0.97781 -2.02269,1.93353 -3.14731,2.87947"
             style="fill:none;fill-rule:evenodd;stroke:#4a8e19;stroke-width:1px;stroke-linecap:butt;stroke-linejoin:miter;stroke-opacity:1" />
          <path
             style="fill:none;fill-rule:evenodd;stroke:#4a8e19;stroke-width:1px;stroke-linecap:butt;stroke-linejoin:miter;stroke-opacity:1"
             d="m 556.9866,343.21934 c -0.91711,0.97781 -3.27269,2.37996 -4.77677,3.0134"
             id="path7959"
             inkscape:connector-curvature="0"
             sodipodi:nodetypes="cc" />
        </g>
        <path
           style="display:inline;fill:#64b629;fill-opacity:1;stroke:#4a8e19;stroke-width:1.90750694;stroke-opacity:1"
           d="m 316.93295,240.06939 c 5.35119,-0.71608 9.56617,1.13832 12.02061,5.02265 2.57992,3.52225 5.42625,6.76109 8.94652,9.3404 3.69287,3.60578 -2.03333,6.80879 -5.0078,8.1025 l -0.45014,0 -0.56267,0 c -4.73743,-0.79351 -9.82666,-1.53192 -14.01058,-3.88237 -1.22781,-3.18769 -6.71449,-0.33868 -5.34541,4.05126 34.497,7.84485 29.83881,36.79995 11.64735,55.76089 -5.06407,4.72646 0,0 -5.06407,4.72646 -3.08211,2.56794 -7.3859,5.52273 -9.90305,6.75208 -5.55905,2.71495 -12.03198,4.07935 -18.02859,6.01278 -16.62579,5.3605 -43.57337,-3.00254 -41.83991,-19.57331 0.61552,-5.88383 11.10749,-10.60385 18.73704,-10.74699 7.54694,-0.14153 24.30725,4.3181 41.18771,8.89026 5.31884,-4.31701 11.06898,-9.85143 10.91588,-17.27419 -0.35586,-17.25372 -23.09603,-19.96816 -20.65013,-41.07499 0.40731,-4.63519 1.50912,-9.88831 6.18942,-12.04141 2.66341,-1.99916 5.86665,-3.34994 11.21782,-4.06602 z m -43.06516,75.41306 c -2.76563,0.11597 -12.50592,3.20995 -9.50919,7.03351 5.97376,7.62194 24.61404,3.1933 37.249,-3.09461 -6.45529,-1.44982 -11.75808,-2.65994 -12.88523,-2.9259 -4.84646,-1.14357 -9.89784,-1.2209 -14.85458,-1.013 z"
           id="path8164"
           inkscape:connector-curvature="0"
           sodipodi:nodetypes="ccccccccccsssscscccsscss" />
        <ellipse
           ry="2.4757648"
           rx="4.0512519"
           cy="319.17926"
           cx="249.93103"
           transform="matrix(0,1,1,0,0,0)"
           id="ellipse7935"
           style="color:#000000;display:inline;overflow:visible;visibility:visible;fill:#000000;fill-opacity:1;fill-rule:nonzero;stroke:none;stroke-width:10;marker:none;enable-background:accumulate" />
        <ellipse
           ry="0.93889397"
           rx="1.6880215"
           cy="257.87457"
           cx="-332.26392"
           transform="scale(-1,1)"
           id="ellipse7937"
           style="color:#000000;display:inline;overflow:visible;visibility:visible;fill:#326011;fill-opacity:1;fill-rule:nonzero;stroke:none;stroke-width:10;marker:none;enable-background:accumulate" />
        <path
           sodipodi:nodetypes="cssccccssscccssscccssscccssc"
           inkscape:connector-curvature="0"
           id="path7939"
           d="m 329.99862,272.66306 -15.97993,0 c -2.49378,0 -4.5014,-2.00762 -4.5014,-4.5014 0,-2.49376 2.00762,-4.50137 7.3444,-3.44715 5.33679,1.05422 9.59947,4.1755 13.13693,7.94855 z m 1.18162,1.35041 c 2.21143,2.74477 3.65228,5.77763 4.38885,9.00279 l -17.9493,0 c -2.49378,0 -4.50139,-2.00761 -4.50139,-4.50139 0,-2.49376 2.00761,-4.5014 4.50139,-4.5014 z m 4.61392,10.12814 c 0.51262,2.89817 0.48208,5.92888 0,9.00279 l -11.42229,0 c -2.49376,0 -4.50139,-2.00764 -4.50139,-4.5014 0,-2.49378 2.00763,-4.50139 4.50139,-4.50139 z m -0.16863,10.12812 c -0.57353,2.98407 -1.56545,6.02971 -2.92588,9.00278 l -4.05126,0 c -2.49378,0 -4.50139,-2.00761 -4.50139,-4.50139 -10e-5,-2.49376 2.00753,-4.50139 4.50129,-4.50139 z m -3.37604,9.90307 c -1.42414,2.94084 -3.17083,5.8455 -5.23286,8.60881 -1.55708,-0.70671 -2.64457,-2.28022 -2.64457,-4.10742 -9e-5,-2.49378 2.00754,-4.50139 4.5013,-4.50139 z"
           style="color:#000000;display:inline;overflow:visible;visibility:visible;fill:#79db32;stroke:none;stroke-width:10;marker:none;enable-background:accumulate" />
        <path
           sodipodi:nodetypes="cc"
           inkscape:connector-curvature="0"
           id="path7941"
           d="m 324.41586,318.25051 c -1.7494,1.86518 -3.8583,3.68822 -6.00352,5.49261"
           style="fill:none;fill-rule:evenodd;stroke:#4a8e19;stroke-width:1.90750694px;stroke-linecap:butt;stroke-linejoin:miter;stroke-opacity:1" />
        <path
           style="fill:none;fill-rule:evenodd;stroke:#4a8e19;stroke-width:1.90750694px;stroke-linecap:butt;stroke-linejoin:miter;stroke-opacity:1"
           d="m 309.34314,314.43549 c -1.7494,1.86518 -6.24268,4.53979 -9.11172,5.74809"
           id="path7943"
           inkscape:connector-curvature="0"
           sodipodi:nodetypes="cc" />
        <path
           sodipodi:nodetypes="ccccccccccsssscscccsscss"
           inkscape:connector-curvature="0"
           id="path8085"
           d="m 244.36147,240.06939 c 5.35119,-0.71608 9.56617,1.13832 12.02061,5.02265 2.57992,3.52225 5.42625,6.76109 8.94652,9.3404 3.69287,3.60578 -2.03333,6.80879 -5.0078,8.1025 l -0.45014,0 -0.56267,0 c -4.73743,-0.79351 -9.82666,-1.53192 -14.01058,-3.88237 -1.22781,-3.18769 -6.71449,-0.33868 -5.34541,4.05126 34.497,7.84485 29.83881,36.79995 11.64735,55.76089 -5.06407,4.72646 0,0 -5.06407,4.72646 -3.08211,2.56794 -7.3859,5.52273 -9.90305,6.75208 -5.55905,2.71495 -12.03198,4.07935 -18.02859,6.01278 -16.62579,5.3605 -43.57337,-3.00254 -41.83991,-19.57331 0.61552,-5.88383 11.10749,-10.60385 18.73704,-10.74699 7.54694,-0.14153 24.30725,4.3181 41.18771,8.89026 5.31884,-4.31701 11.06898,-9.85143 10.91588,-17.27419 -0.35586,-17.25372 -23.09603,-19.96816 -20.65013,-41.07499 0.40731,-4.63519 1.50912,-9.88831 6.18942,-12.04141 2.66341,-1.99916 5.86665,-3.34994 11.21782,-4.06602 z m -43.06516,75.41306 c -2.76563,0.11597 -12.50592,3.20995 -9.50919,7.03351 5.97376,7.62194 24.61404,3.1933 37.249,-3.09461 -6.45529,-1.44982 -11.75808,-2.65994 -12.88523,-2.9259 -4.84646,-1.14357 -9.89784,-1.2209 -14.85458,-1.013 z"
           style="display:inline;fill:#64b629;fill-opacity:1;stroke:#4a8e19;stroke-width:1.90750694;stroke-opacity:1" />
        <g
           id="g8135">
          <path
             sodipodi:nodetypes="cccccc"
             inkscape:connector-curvature="0"
             id="path6397-7"
             d="m 263.2773,259.00944 5.12034,11.46109 -3.80523,-4.73546 0.40519,7.17052 c -3.08207,-6.12441 -5.44875,-8.62843 -6.30995,-11.96541 z"
             style="color:#000000;font-style:normal;font-variant:normal;font-weight:normal;font-stretch:normal;font-size:xx-small;line-height:normal;font-family:sans-serif;-inkscape-font-specification:sans-serif;text-indent:0;text-align:start;text-decoration:none;text-decoration-line:none;letter-spacing:normal;word-spacing:normal;text-transform:none;direction:ltr;block-progression:tb;writing-mode:lr-tb;baseline-shift:baseline;text-anchor:start;display:inline;overflow:visible;visibility:visible;fill:#db3279;fill-opacity:1;stroke:none;stroke-width:1;marker:none;enable-background:accumulate" />
          <ellipse
             ry="2.4757648"
             rx="4.0512519"
             cy="246.59154"
             cx="249.93103"
             transform="matrix(0,1,1,0,0,0)"
             id="path6385-7"
             style="color:#000000;display:inline;overflow:visible;visibility:visible;fill:#000000;fill-opacity:1;fill-rule:nonzero;stroke:none;stroke-width:10;marker:none;enable-background:accumulate" />
          <ellipse
             ry="0.93889397"
             rx="1.6880215"
             cy="257.87457"
             cx="-259.67618"
             transform="scale(-1,1)"
             id="path6389-8"
             style="color:#000000;display:inline;overflow:visible;visibility:visible;fill:#326011;fill-opacity:1;fill-rule:nonzero;stroke:none;stroke-width:10;marker:none;enable-background:accumulate" />
          <path
             sodipodi:nodetypes="cssccccssscccssscccssscccssc"
             inkscape:connector-curvature="0"
             id="rect6413-6"
             d="m 257.4109,272.66306 -15.97993,0 c -2.49378,0 -4.5014,-2.00762 -4.5014,-4.5014 0,-2.49376 2.00762,-4.50137 7.3444,-3.44715 5.33679,1.05422 9.59947,4.1755 13.13693,7.94855 z m 1.18162,1.35041 c 2.21143,2.74477 3.65228,5.77763 4.38885,9.00279 l -17.9493,0 c -2.49378,0 -4.50139,-2.00761 -4.50139,-4.50139 0,-2.49376 2.00761,-4.5014 4.50139,-4.5014 z m 4.61392,10.12814 c 0.51262,2.89817 0.48208,5.92888 0,9.00279 l -11.42229,0 c -2.49376,0 -4.50139,-2.00764 -4.50139,-4.5014 0,-2.49378 2.00763,-4.50139 4.50139,-4.50139 z m -0.16863,10.12812 c -0.57353,2.98407 -1.56545,6.02971 -2.92588,9.00278 l -4.05126,0 c -2.49378,0 -4.50139,-2.00761 -4.50139,-4.50139 -1e-4,-2.49376 2.00753,-4.50139 4.50129,-4.50139 z m -3.37604,9.90307 c -1.42414,2.94084 -3.17083,5.8455 -5.23286,8.60881 -1.55708,-0.70671 -2.64457,-2.28022 -2.64457,-4.10742 -9e-5,-2.49378 2.00754,-4.50139 4.5013,-4.50139 z"
             style="color:#000000;display:inline;overflow:visible;visibility:visible;fill:#79db32;stroke:none;stroke-width:10;marker:none;enable-background:accumulate" />
          <path
             sodipodi:nodetypes="cc"
             inkscape:connector-curvature="0"
             id="path14946"
             d="m 251.82814,318.25051 c -1.7494,1.86518 -3.8583,3.68822 -6.00352,5.49261"
             style="fill:none;fill-rule:evenodd;stroke:#4a8e19;stroke-width:1.90750694px;stroke-linecap:butt;stroke-linejoin:miter;stroke-opacity:1" />
          <path
             style="fill:none;fill-rule:evenodd;stroke:#4a8e19;stroke-width:1.90750694px;stroke-linecap:butt;stroke-linejoin:miter;stroke-opacity:1"
             d="m 236.75542,314.43549 c -1.7494,1.86518 -6.24268,4.53979 -9.11172,5.74809"
             id="path14948"
             inkscape:connector-curvature="0"
             sodipodi:nodetypes="cc" />
        </g>
      </g>
    </g>
  </g>
</svg>
